# xmcd
#
# Track frame offsets: 
#        300
#        24741
#        42121
#        65504
#        84453
#        109967
#        124873
#        143606
#        163142
#        185331
#        202970
#
# Disc length: 2898 seconds
#
# Revision: 0
# Processed by: cddbd v1.5.2PL0 Copyright (c) Steve Scherf et al.
# Submitted via: ExactAudioCopyFreeDBPlugin 1.0
#
DISCID=970b4e0b
DTITLE=Bregenborg band - green fields
DYEAR=1900
DGENRE=Country
TTITLE0=Green Fields
TTITLE1=Roddy McCorley
TTITLE2=The Leaving of Liverpool
TTITLE3=Working Man
TTITLE4=Streets of London
TTITLE5=All for Me Grog
TTITLE6=Gilgarry Mountain
TTITLE7=Katie
TTITLE8=Admiral William Brown
TTITLE9=Last Thing om My Mind
TTITLE10=The Ould Triangle
EXTD=
EXTT0=
EXTT1=
EXTT2=
EXTT3=
EXTT4=
EXTT5=
EXTT6=
EXTT7=
EXTT8=
EXTT9=
EXTT10=
PLAYORDER=
